<svg width="17" height="13" viewBox="0 0 17 13" fill="none" xmlns="http://www.w3.org/2000/svg">
<path d="M9.40642 0.475499C9.62074 0.258344 9.91138 0.136353 10.2144 0.136353C10.5175 0.136353 10.8081 0.258344 11.0224 0.475499L16.1654 5.68804C16.3796 5.90526 16.5 6.19983 16.5 6.50698C16.5 6.81413 16.3796 7.10871 16.1654 7.32593L11.0224 12.5385C10.8069 12.7495 10.5182 12.8662 10.2185 12.8636C9.91889 12.8609 9.63224 12.7391 9.42034 12.5244C9.20845 12.3096 9.08825 12.0191 9.08565 11.7153C9.08304 11.4116 9.19824 11.119 9.40642 10.9006L12.5002 7.66532H1.64287C1.33977 7.66532 1.04907 7.54328 0.83474 7.32605C0.62041 7.10882 0.5 6.81419 0.5 6.50698C0.5 6.19977 0.62041 5.90514 0.83474 5.68791C1.04907 5.47068 1.33977 5.34864 1.64287 5.34864H12.5002L9.40642 2.11339C9.19217 1.89617 9.0718 1.6016 9.0718 1.29445C9.0718 0.987296 9.19217 0.69272 9.40642 0.475499Z" fill="#0D4036"/>
</svg>
