<svg width="48" height="48" viewBox="0 0 48 48" fill="none" xmlns="http://www.w3.org/2000/svg">
<g clip-path="url(#clip0_16_377)">
<path d="M36 43.5001H12C10.0109 43.5001 8.10322 42.7099 6.6967 41.3034C5.29018 39.8969 4.5 37.9892 4.5 36.0001V15.0001C4.5 13.011 5.29018 11.1033 6.6967 9.69682C8.10322 8.2903 10.0109 7.50012 12 7.50012H36C37.9891 7.50012 39.8968 8.2903 41.3033 9.69682C42.7098 11.1033 43.5 13.011 43.5 15.0001V36.0001C43.5 37.9892 42.7098 39.8969 41.3033 41.3034C39.8968 42.7099 37.9891 43.5001 36 43.5001ZM12 10.5001C10.8065 10.5001 9.66193 10.9742 8.81802 11.8181C7.97411 12.6621 7.5 13.8066 7.5 15.0001V36.0001C7.5 37.1936 7.97411 38.3382 8.81802 39.1821C9.66193 40.026 10.8065 40.5001 12 40.5001H36C37.1935 40.5001 38.3381 40.026 39.182 39.1821C40.0259 38.3382 40.5 37.1936 40.5 36.0001V15.0001C40.5 13.8066 40.0259 12.6621 39.182 11.8181C38.3381 10.9742 37.1935 10.5001 36 10.5001H12Z" fill="#0D4036"/>
<path d="M36 37.5001H30C29.6022 37.5001 29.2206 37.3421 28.9393 37.0608C28.658 36.7795 28.5 36.3979 28.5 36.0001V30.0001C28.5 29.6023 28.658 29.2208 28.9393 28.9395C29.2206 28.6582 29.6022 28.5001 30 28.5001H36C36.3978 28.5001 36.7794 28.6582 37.0607 28.9395C37.342 29.2208 37.5 29.6023 37.5 30.0001V36.0001C37.5 36.3979 37.342 36.7795 37.0607 37.0608C36.7794 37.3421 36.3978 37.5001 36 37.5001ZM31.5 34.5001H34.5V31.5001H31.5V34.5001Z" fill="#0D4036"/>
<path d="M42 19.5001H6C5.60218 19.5001 5.22064 19.3421 4.93934 19.0608C4.65804 18.7795 4.5 18.3979 4.5 18.0001C4.5 17.6023 4.65804 17.2208 4.93934 16.9395C5.22064 16.6582 5.60218 16.5001 6 16.5001H42C42.3978 16.5001 42.7794 16.6582 43.0607 16.9395C43.342 17.2208 43.5 17.6023 43.5 18.0001C43.5 18.3979 43.342 18.7795 43.0607 19.0608C42.7794 19.3421 42.3978 19.5001 42 19.5001Z" fill="#0D4036"/>
<path d="M16.5 13.5001C16.1022 13.5001 15.7206 13.3421 15.4393 13.0608C15.158 12.7795 15 12.3979 15 12.0001V6.00012C15 5.6023 15.158 5.22077 15.4393 4.93946C15.7206 4.65816 16.1022 4.50012 16.5 4.50012C16.8978 4.50012 17.2794 4.65816 17.5607 4.93946C17.842 5.22077 18 5.6023 18 6.00012V12.0001C18 12.3979 17.842 12.7795 17.5607 13.0608C17.2794 13.3421 16.8978 13.5001 16.5 13.5001Z" fill="#0D4036"/>
<path d="M31.5 13.5001C31.1022 13.5001 30.7206 13.3421 30.4393 13.0608C30.158 12.7795 30 12.3979 30 12.0001V6.00012C30 5.6023 30.158 5.22077 30.4393 4.93946C30.7206 4.65816 31.1022 4.50012 31.5 4.50012C31.8978 4.50012 32.2794 4.65816 32.5607 4.93946C32.842 5.22077 33 5.6023 33 6.00012V12.0001C33 12.3979 32.842 12.7795 32.5607 13.0608C32.2794 13.3421 31.8978 13.5001 31.5 13.5001Z" fill="#0D4036"/>
</g>
<defs>
<clipPath id="clip0_16_377">
<rect width="48" height="48" fill="white"/>
</clipPath>
</defs>
</svg>
