<svg width="40" height="40" viewBox="0 0 40 40" fill="none" xmlns="http://www.w3.org/2000/svg">
<path d="M32 39.5H8C6.01088 39.5 4.10322 38.7098 2.6967 37.3033C1.29018 35.8968 0.5 33.9891 0.5 32L0.5 11C0.5 9.01088 1.29018 7.10322 2.6967 5.6967C4.10322 4.29018 6.01088 3.5 8 3.5L32 3.5C33.9891 3.5 35.8968 4.29018 37.3033 5.6967C38.7098 7.10322 39.5 9.01088 39.5 11V32C39.5 33.9891 38.7098 35.8968 37.3033 37.3033C35.8968 38.7098 33.9891 39.5 32 39.5ZM8 6.5C6.80653 6.5 5.66193 6.97411 4.81802 7.81802C3.97411 8.66193 3.5 9.80653 3.5 11L3.5 32C3.5 33.1935 3.97411 34.3381 4.81802 35.182C5.66193 36.0259 6.80653 36.5 8 36.5H32C33.1935 36.5 34.3381 36.0259 35.182 35.182C36.0259 34.3381 36.5 33.1935 36.5 32V11C36.5 9.80653 36.0259 8.66193 35.182 7.81802C34.3381 6.97411 33.1935 6.5 32 6.5H8Z" fill="white"/>
<path d="M32 33.5H26C25.6022 33.5 25.2206 33.342 24.9393 33.0607C24.658 32.7794 24.5 32.3978 24.5 32V26C24.5 25.6022 24.658 25.2206 24.9393 24.9393C25.2206 24.658 25.6022 24.5 26 24.5H32C32.3978 24.5 32.7794 24.658 33.0607 24.9393C33.342 25.2206 33.5 25.6022 33.5 26V32C33.5 32.3978 33.342 32.7794 33.0607 33.0607C32.7794 33.342 32.3978 33.5 32 33.5ZM27.5 30.5H30.5V27.5H27.5V30.5Z" fill="white"/>
<path d="M38 15.5H2C1.60218 15.5 1.22064 15.342 0.93934 15.0607C0.658035 14.7794 0.5 14.3978 0.5 14C0.5 13.6022 0.658035 13.2206 0.93934 12.9393C1.22064 12.658 1.60218 12.5 2 12.5H38C38.3978 12.5 38.7794 12.658 39.0607 12.9393C39.342 13.2206 39.5 13.6022 39.5 14C39.5 14.3978 39.342 14.7794 39.0607 15.0607C38.7794 15.342 38.3978 15.5 38 15.5Z" fill="white"/>
<path d="M12.5 9.5C12.1022 9.5 11.7206 9.34196 11.4393 9.06066C11.158 8.77936 11 8.39782 11 8V2C11 1.60218 11.158 1.22064 11.4393 0.93934C11.7206 0.658035 12.1022 0.5 12.5 0.5C12.8978 0.5 13.2794 0.658035 13.5607 0.93934C13.842 1.22064 14 1.60218 14 2V8C14 8.39782 13.842 8.77936 13.5607 9.06066C13.2794 9.34196 12.8978 9.5 12.5 9.5Z" fill="white"/>
<path d="M27.5 9.5C27.1022 9.5 26.7206 9.34196 26.4393 9.06066C26.158 8.77936 26 8.39782 26 8V2C26 1.60218 26.158 1.22064 26.4393 0.93934C26.7206 0.658035 27.1022 0.5 27.5 0.5C27.8978 0.5 28.2794 0.658035 28.5607 0.93934C28.842 1.22064 29 1.60218 29 2V8C29 8.39782 28.842 8.77936 28.5607 9.06066C28.2794 9.34196 27.8978 9.5 27.5 9.5Z" fill="white"/>
</svg>
